HIERARCHY
ROOT Bip001_Pelvis
{
  OFFSET -7.25697 94.004 -3.48878
  CHANNELS 6 Xposition Yposition Zposition Zrotation Xrotation Yrotation
  JOINT Bip001_Spine
  {
    OFFSET 1.44608e-005 10.4157 -0.0118244
    CHANNELS 3 Zrotation Xrotation Yrotation
    JOINT Bip001_L_Thigh
    {
      OFFSET 11.2582 -10.4157 0.0118432
      CHANNELS 3 Zrotation Xrotation Yrotation
      JOINT Bip001_L_Calf
      {
        OFFSET -0.720717 -44.8687 0.366937
        CHANNELS 3 Zrotation Xrotation Yrotation
        JOINT Bip001_L_Foot
        {
          OFFSET -0.664439 -41.3745 -3.62995
          CHANNELS 3 Zrotation Xrotation Yrotation
          JOINT Bip001_L_Toe0
          {
            OFFSET 0.0541047 -10.4146 13.4033
            CHANNELS 3 Zrotation Xrotation Yrotation
            End Site
            {
              OFFSET -1.04503e-005 0 7.70137
            }
          }
        }
      }
    }
    JOINT Bip001_R_Thigh
    {
      OFFSET -11.2582 -10.4156 0.0118122
      CHANNELS 3 Zrotation Xrotation Yrotation
      JOINT Bip001_R_Calf
      {
        OFFSET 0.72059 -44.8687 0.36676
        CHANNELS 3 Zrotation Xrotation Yrotation
        JOINT Bip001_R_Foot
        {
          OFFSET 0.664321 -41.3745 -3.62979
          CHANNELS 3 Zrotation Xrotation Yrotation
          JOINT Bip001_R_Toe0
          {
            OFFSET -0.05417 -10.4146 13.4033
            CHANNELS 3 Zrotation Xrotation Yrotation
            End Site
            {
              OFFSET -1.04873e-005 0 7.70137
            }
          }
        }
      }
    }
    JOINT Bip001_Spine1
    {
      OFFSET 1.90638e-005 14.8539 1.10727
      CHANNELS 3 Zrotation Xrotation Yrotation
      JOINT Bip001_Spine2
      {
        OFFSET 2.28934e-005 14.7848 -1.7233
        CHANNELS 3 Zrotation Xrotation Yrotation
        JOINT Bip001_Neck
        {
          OFFSET 2.24514e-005 15.6905 -0.498826
          CHANNELS 3 Zrotation Xrotation Yrotation
          JOINT Bip001_L_Clavicle
          {
            OFFSET 6.17691 -0.000591152 0.00852867
            CHANNELS 3 Zrotation Xrotation Yrotation
            JOINT Bip001_L_UpperArm
            {
              OFFSET 11.773 -0.0611878 0.00197697
              CHANNELS 3 Zrotation Xrotation Yrotation
              JOINT Bip001_L_Forearm
              {
                OFFSET 26.4515 0.0817566 -2.1958
                CHANNELS 3 Zrotation Xrotation Yrotation
                JOINT Bip001_L_Hand
                {
                  OFFSET 32.8677 0.156744 1.67112
                  CHANNELS 3 Zrotation Xrotation Yrotation
                  JOINT Bip001_L_Finger0
                  {
                    OFFSET 6.16268 -2.25225 6.01674
                    CHANNELS 3 Zrotation Xrotation Yrotation
                    End Site
                    {
                      OFFSET 4.30499 -1.46662 0.618148
                    }
                  }
                  JOINT Bip001_L_Finger1
                  {
                    OFFSET 11.2958 -0.718373 -0.201963
                    CHANNELS 3 Zrotation Xrotation Yrotation
                    End Site
                    {
                      OFFSET 6.31953 -0.405162 -0.0802303
                    }
                  }
                }
              }
            }
          }
          JOINT Bip001_R_Clavicle
          {
            OFFSET -6.17691 -0.000574027 0.00851165
            CHANNELS 3 Zrotation Xrotation Yrotation
            JOINT Bip001_R_UpperArm
            {
              OFFSET -11.773 -0.0611516 0.00194365
              CHANNELS 3 Zrotation Xrotation Yrotation
              JOINT Bip001_R_Forearm
              {
                OFFSET -26.4514 0.0822335 -2.19736
                CHANNELS 3 Zrotation Xrotation Yrotation
                JOINT Bip001_R_Hand
                {
                  OFFSET -32.8679 0.156816 1.67144
                  CHANNELS 3 Zrotation Xrotation Yrotation
                  JOINT Bip001_R_Finger0
                  {
                    OFFSET -6.16272 -2.25224 6.0167
                    CHANNELS 3 Zrotation Xrotation Yrotation
                    End Site
                    {
                      OFFSET -4.30501 -1.46661 0.618134
                    }
                  }
                  JOINT Bip001_R_Finger1
                  {
                    OFFSET -11.2958 -0.718343 -0.201994
                    CHANNELS 3 Zrotation Xrotation Yrotation
                    End Site
                    {
                      OFFSET -6.31955 -0.405145 -0.0802476
                    }
                  }
                }
              }
            }
          }
          JOINT Bip001_Head
          {
            OFFSET 1.11782e-005 11.4912 2.09908
            CHANNELS 3 Zrotation Xrotation Yrotation
            End Site
            {
              OFFSET 2.95144e-005 21.2823 -2.83069e-005
            }
          }
        }
      }
    }
  }
}
MOTION
Frames:	5
Frame Time:	0.0333333
-6.46935 93.8882 -3.40958 -2.06742 3.23688 3.52325 0.320338 -0.473104 0.42172 6.10458 -24.0629 -2.91233 0.210163 38.5629 -0.563371 -3.96545 -11.0826 3.12151 0 0 -1.59027e-015 1.28794 -20.1334 4.61359 -0.180321 39.1648 0.671732 11.1864 -33.1503 -8.54675 7.14989e-008 -8.09531e-007 4.977e-007 0.664524 -0.904023 0.858433 0.665778 -0.898852 0.858422 -8.91351 -7.32319 -1.88903 -19.8994 12.6268 -10.7214 -41.9876 24.7103 11.3687 -2.44054 0.618123 -25.247 5.21082 13.948 -6.17641 1.76556e-031 -6.36111e-015 1.59028e-015 -0 0 3.18055e-015 31.3959 12.1812 11.3568 40.7734 43.3589 -18.2242 4.125 1.96787 50.8144 -12.7392 -9.46957 -8.18448 9.54166e-015 -3.18055e-015 1.59028e-015 6.36111e-015 0 1.59028e-015 1.17314 7.04988 -4.88134 
-6.49979 93.898 -3.41738 -2.06324 3.23695 3.50387 0.320338 -0.473104 0.42172 6.08896 -24.0225 -2.96499 0.209238 38.4893 -0.562795 -3.97927 -11.0813 3.24751 -4.96961e-016 0 -7.95137e-016 1.28794 -20.1334 4.61359 -0.179756 39.1274 0.671375 11.1877 -33.1288 -8.54915 7.14989e-008 -8.09531e-007 4.977e-007 0.664524 -0.904023 0.858433 0.665778 -0.898852 0.858422 -8.91782 -7.25651 -1.94034 -19.8929 12.5474 -10.6963 -41.9923 24.6573 11.4021 -2.44005 0.617889 -25.2931 5.2026 13.9207 -6.15443 0 6.36111e-015 -0 3.18055e-015 9.54167e-015 -1.59028e-015 31.4114 12.1499 11.4333 40.7734 43.3589 -18.2242 4.12413 1.967 50.8369 -12.769 -9.38205 -8.11345 -3.18055e-015 0 -0 -6.36111e-015 0 -1.59028e-015 1.17282 6.96206 -4.93967 
-6.53023 93.9078 -3.42486 -2.05034 3.23702 3.4843 0.320338 -0.473104 0.42172 6.08832 -23.9809 -3.02002 0.20832 38.4161 -0.562224 -3.99529 -11.0799 3.3695 7.95137e-016 7.9514e-016 -0 1.28718 -20.1245 4.61333 -0.179198 39.0904 0.671023 11.1735 -33.1048 -8.55751 7.14989e-008 -8.09531e-007 4.977e-007 0.664524 -0.904023 0.858433 0.665778 -0.898852 0.858422 -8.92208 -7.19058 -1.99208 -19.8884 12.4683 -10.6725 -41.9871 24.6055 11.4353 -2.44239 0.620671 -25.3395 5.1793 13.8947 -6.13128 -3.18055e-015 0 3.18055e-015 -3.18055e-015 -3.18056e-015 3.18055e-015 31.4209 12.1199 11.5058 40.7659 43.3422 -18.2191 4.12286 1.96655 50.8582 -12.7966 -9.29678 -8.04322 -3.18055e-015 0 -0 -3.18055e-015 3.18056e-015 -1.59028e-015 1.17253 6.8761 -4.99842 
-6.56073 93.9174 -3.43023 -2.03921 3.23709 3.46345 0.320338 -0.473104 0.42172 6.09343 -23.9331 -3.05489 0.207464 38.3477 -0.561693 -4.01087 -11.067 3.46504 -8.94529e-016 1.59028e-015 -0 1.28542 -20.104 4.61272 -0.178643 39.0537 0.670673 11.1409 -33.082 -8.57837 7.14989e-008 -8.09531e-007 4.977e-007 0.66445 -0.904023 0.858433 0.66283 -0.898852 0.858422 -8.92651 -7.13065 -2.04436 -19.8903 12.3941 -10.6515 -41.9798 24.559 11.4659 -2.44596 0.624128 -25.3873 5.13707 13.8775 -6.10005 2.64834e-031 -9.54166e-015 1.59028e-015 -3.18055e-015 -6.36111e-015 3.18055e-015 31.4295 12.0954 11.5755 40.7571 43.3228 -18.2131 4.12166 1.96663 50.871 -12.8096 -9.2271 -7.97783 -3.53112e-031 1.27222e-014 1.59028e-015 -5.29669e-031 9.54167e-015 3.18055e-015 1.17333 6.80131 -5.05951 
-6.59123 93.9269 -3.43348 -2.02973 3.23716 3.44129 0.320338 -0.473104 0.42172 6.11358 -23.8781 -3.05619 0.206646 38.2822 -0.561186 -4.02358 -11.0526 3.53597 -2.98176e-016 0 -1.59027e-015 1.29446 -20.0749 4.61186 -0.178077 39.0161 0.670317 11.0957 -33.0607 -8.60482 7.14989e-008 -8.09531e-007 4.977e-007 0.663636 -0.904025 0.851413 0.658924 -0.90152 0.851529 -8.93106 -7.0755 -2.09702 -19.889 12.3247 -10.6246 -41.9736 24.5166 11.4945 -2.4504 0.626359 -25.4364 5.08053 13.8692 -6.0611 6.36111e-015 9.54166e-015 -4.77083e-015 6.36111e-015 1.27222e-014 -4.77083e-015 31.4414 12.0751 11.6445 40.7473 43.3011 -18.2063 4.12058 1.96716 50.8759 -12.8088 -9.17389 -7.91661 3.18055e-015 3.18055e-015 4.77083e-015 3.18055e-015 0 3.18055e-015 1.17515 6.73568 -5.12368 
